<svg width="20" height="19" viewBox="0 0 20 19" fill="none" xmlns="http://www.w3.org/2000/svg">
<path d="M18.8695 14.7777L14.5954 10.8916C14.3933 10.7079 14.1278 10.61 13.8549 10.6184C13.582 10.6269 13.3231 10.741 13.1328 10.9368L10.6167 13.5244C10.0111 13.4087 8.79348 13.0292 7.54015 11.779C6.28683 10.5246 5.90726 9.30389 5.79475 8.70246L8.38026 6.1853C8.57626 5.99512 8.69058 5.73614 8.69902 5.46317C8.70746 5.1902 8.60935 4.92466 8.42547 4.72273L4.54037 0.449653C4.35642 0.247099 4.10074 0.124235 3.82765 0.107155C3.55457 0.0900744 3.28558 0.180124 3.07781 0.358178L0.796172 2.31492C0.614388 2.49736 0.505888 2.74018 0.491252 2.99731C0.47548 3.26017 0.174767 9.48684 5.00301 14.3172C9.21511 18.5282 14.4913 18.8363 15.9444 18.8363C16.1568 18.8363 16.2871 18.83 16.3218 18.8279C16.5789 18.8135 16.8216 18.7045 17.0032 18.5219L18.9589 16.2392C19.1376 16.0321 19.2283 15.7634 19.2116 15.4903C19.1949 15.2172 19.0722 14.9615 18.8695 14.7777Z" fill="white"/>
</svg>
