<svg width="1710" height="226" viewBox="0 0 1710 226" fill="none" xmlns="http://www.w3.org/2000/svg">
<path d="M530.641 203.356V99.2145C530.641 85.0413 533.429 67.4789 533.429 67.4789L482.69 181.789C482.69 181.789 460.109 181.789 448.957 162.069L409.649 69.3276C409.649 69.3276 412.158 85.0413 412.158 99.2145V223.384C412.158 223.384 374.801 223.384 374.801 203.356V0.00233355H398.776C399.891 0.00233355 417.733 -0.613884 425.539 18.181L470.981 125.712C488.823 84.117 508.059 40.9813 525.623 0.00233355C535.101 0.00233355 567.998 0.00233269 567.998 20.0296V223.384C567.998 223.384 530.641 223.384 530.641 203.356Z" fill="#FE2000"/>
<path d="M735.828 112.155V169.772C735.828 203.665 714.362 224 668.641 224C622.921 224 601.454 203.665 601.454 169.772V112.155C601.454 78.2629 622.921 57.9275 668.641 57.9275C714.362 57.9275 735.828 78.2629 735.828 112.155ZM699.586 165.151V116.777C699.586 97.9821 694.289 87.1981 668.641 87.1981C642.993 87.1981 637.696 97.9821 637.696 116.777V165.151C637.696 183.945 642.993 194.729 668.641 194.729C694.289 194.729 699.586 183.945 699.586 165.151Z" fill="#FE2000"/>
<path d="M855.993 202.432V113.388C855.993 97.0577 849.023 87.8144 829.229 87.8144C815.011 87.8144 802.745 92.1279 802.745 92.1279V222.459C802.745 222.459 766.503 222.459 766.503 202.432V57.9275C766.503 57.9275 777.376 64.3978 791.594 64.3978C805.254 64.3978 818.078 57.9275 833.132 57.9275C849.023 57.9275 865.75 61.3167 877.18 71.1763C877.18 71.1763 890.004 57.9275 924.852 57.9275C955.518 57.9275 981.724 75.1817 981.724 111.231V222.459C981.724 222.459 945.482 221.843 945.482 202.432V115.853C945.482 95.8253 935.725 87.1981 922.343 87.1981C907.568 87.1981 892.792 94.2847 892.234 108.766V222.459C892.234 222.459 855.993 221.843 855.993 202.432Z" fill="#FE2000"/>
<path d="M1048.52 116.777V125.712C1051.31 126.328 1061.07 128.485 1069.43 128.485C1089.5 128.485 1096.47 121.399 1096.47 109.074C1096.47 96.1334 1090.06 87.1981 1072.78 87.1981C1053.82 87.1981 1048.52 97.9821 1048.52 116.777ZM1079.47 224C1037.09 224 1012.28 203.665 1012.28 169.772V112.155C1012.28 78.2629 1034.02 57.9275 1073.89 57.9275C1113.76 57.9275 1132.71 78.2629 1132.71 109.074C1132.71 135.264 1118.77 159.605 1074.73 159.605C1065.81 159.605 1056.88 157.756 1048.52 154.059V165.151C1048.52 183.637 1058.56 193.189 1079.47 193.189C1107.07 193.189 1125.74 180.248 1126.02 161.761C1131.88 171.005 1134.67 179.324 1134.67 187.027C1134.67 209.211 1111.53 224 1079.47 224Z" fill="#FE2000"/>
<path d="M1252.12 202.432V113.388C1252.12 97.0577 1245.15 87.8144 1225.35 87.8144C1211.13 87.8144 1198.87 92.1279 1198.87 92.1279V222.459C1198.87 222.459 1162.63 222.459 1162.63 202.432V57.9275C1162.63 57.9275 1173.5 64.3978 1187.72 64.3978C1201.38 64.3978 1214.2 57.9275 1229.26 57.9275C1257.97 57.9275 1288.36 68.7114 1288.36 108.766V222.459C1288.36 222.459 1252.12 221.843 1252.12 202.432Z" fill="#FE2000"/>
<path d="M1322.17 169.772V31.7379C1329.42 31.7379 1358.13 31.7379 1358.13 57.9275V69.0195H1415.01C1415.01 69.0195 1414.73 99.2145 1394.38 99.2145H1358.13V161.145C1358.13 181.789 1363.43 193.805 1384.62 193.805C1400.79 193.805 1417.52 186.102 1417.52 161.453C1425.04 170.697 1429.22 179.324 1429.22 188.875C1429.22 207.67 1413.05 224 1379.6 224C1343.08 224 1322.17 203.973 1322.17 169.772Z" fill="#FE2000"/>
<path d="M1446.6 210.751V181.789H1469.46C1475.31 181.789 1480.33 186.718 1480.33 191.34V220.303H1457.75C1451.61 220.303 1446.6 215.989 1446.6 210.751Z" fill="#FE2000"/>
<path d="M1514.37 202.432V59.468C1516.6 59.468 1550.62 59.7761 1550.62 79.4953V222.459C1550.62 222.459 1514.37 222.459 1514.37 202.432ZM1515.21 28.0406V2.46724H1539.74C1544.2 2.46724 1550.06 7.08892 1550.06 11.4025V36.9758H1525.52C1519.67 36.9758 1515.21 32.3541 1515.21 28.0406Z" fill="#FE2000"/>
<path d="M1673.56 202.432V113.388C1673.56 97.0577 1666.59 87.8144 1646.8 87.8144C1632.58 87.8144 1620.31 92.1279 1620.31 92.1279V222.459C1620.31 222.459 1584.07 222.459 1584.07 202.432V57.9275C1584.07 57.9275 1594.94 64.3978 1609.16 64.3978C1622.82 64.3978 1635.64 57.9275 1650.7 57.9275C1679.41 57.9275 1709.8 68.7114 1709.8 108.766V222.459C1709.8 222.459 1673.56 221.843 1673.56 202.432Z" fill="#FE2000"/>
<path d="M287.109 62.1094H299.414L314.795 65.8438L327.1 72.0679L337.354 80.7816L345.557 90.7401L352.734 105.678L355.811 116.881V136.798L351.709 146.757L345.557 150.491L279.932 151.736L278.906 154.226L281.982 162.939L287.109 170.408L297.363 176.632L300.439 177.877H313.77L324.023 174.143L335.303 166.674H343.506L348.633 172.898L350.684 179.122V187.836L346.582 197.794L339.404 206.508L327.1 215.221L312.744 221.445L301.465 223.935H277.881L261.475 218.956L246.094 208.997L239.941 202.773L238.801 201.5L237.891 200.284L228.662 185.346L222.51 166.674L221.484 161.694V128.084L226.611 109.412L233.789 95.7193L238.916 89.4953L244.043 83.2712L252.246 75.8023L264.551 68.3334L278.906 63.3542L287.109 62.1094ZM288.135 93.2297L281.982 98.209L276.855 108.167V114.392L281.982 119.371H299.414L304.541 115.636L305.566 114.392L304.541 103.188L299.414 95.7193L295.312 93.2297H288.135Z" fill="#FE2000"/>
<path d="M194.834 191.582H216.367L223.545 201.541L233.799 212.744L237.9 216.478V225.192L212.266 223.947L117.93 216.478L51.2793 211.499L23.5938 209.009L2.06055 207.765L1.03516 204.03L5.13672 202.785L115.879 196.561L194.834 191.582Z" fill="#FE2000"/>
<path d="M216.357 69.5898H230.713L229.688 74.5691L222.51 83.2828L211.23 101.955H197.9L130.225 96.9757L32.8125 89.5069L2.05078 87.0172L0 85.7724V83.2828L6.15234 82.038L105.615 75.8139L176.367 72.0795L216.357 69.5898Z" fill="#FE2000"/>
<path d="M191.748 131.816H200.977V149.244L202.002 160.447L149.707 155.468L79.9805 147.999L63.5742 145.509V141.775L157.91 134.306L191.748 131.816Z" fill="#FE2000"/>
</svg>
