<svg width="49" height="49" viewBox="0 0 49 49" fill="none" xmlns="http://www.w3.org/2000/svg">
<g filter="url(#filter0_d_31_442)">
<g clip-path="url(#clip0_31_442)">
<path d="M35.094 4.0426H13.6648C8.44342 4.0426 4.21069 8.27533 4.21069 13.4967V34.9259C4.21069 40.1472 8.44342 44.38 13.6648 44.38H35.094C40.3153 44.38 44.548 40.1472 44.548 34.9259V13.4967C44.548 8.27533 40.3153 4.0426 35.094 4.0426Z" fill="url(#paint0_radial_31_442)"/>
<path d="M35.094 4.0426H13.6648C8.44342 4.0426 4.21069 8.27533 4.21069 13.4967V34.9259C4.21069 40.1472 8.44342 44.38 13.6648 44.38H35.094C40.3153 44.38 44.548 40.1472 44.548 34.9259V13.4967C44.548 8.27533 40.3153 4.0426 35.094 4.0426Z" fill="url(#paint1_radial_31_442)"/>
<path d="M24.3814 8.45422C20.1021 8.45422 19.565 8.47297 17.8844 8.54939C16.2069 8.62629 15.0619 8.89179 14.06 9.28145C13.0236 9.68388 12.1445 10.2223 11.2687 11.0984C10.3922 11.9743 9.85377 12.8534 9.45008 13.8894C9.05932 14.8915 8.7935 16.037 8.71802 17.7137C8.64286 19.3945 8.62317 19.9318 8.62317 24.2112C8.62317 28.4905 8.64208 29.026 8.71834 30.7066C8.79555 32.384 9.06105 33.5291 9.4504 34.5309C9.85314 35.5674 10.3916 36.4465 11.2676 37.3222C12.1432 38.1988 13.0223 38.7384 14.058 39.1409C15.0606 39.5305 16.2058 39.796 17.883 39.8729C19.5637 39.9493 20.1004 39.9681 24.3795 39.9681C28.6592 39.9681 29.1946 39.9493 30.8752 39.8729C32.5527 39.796 33.699 39.5305 34.7016 39.1409C35.7376 38.7384 36.6154 38.1988 37.4908 37.3222C38.3674 36.4465 38.9056 35.5674 39.3095 34.5314C39.6968 33.5291 39.9628 32.3837 40.0416 30.7069C40.117 29.0263 40.1367 28.4905 40.1367 24.2112C40.1367 19.9318 40.117 19.3948 40.0416 17.714C39.9628 16.0365 39.6968 14.8917 39.3095 13.8898C38.9056 12.8534 38.3674 11.9743 37.4908 11.0984C36.6145 10.222 35.7379 9.68357 34.7006 9.28161C33.6961 8.89179 32.5505 8.62613 30.873 8.54939C29.1922 8.47297 28.6571 8.45422 24.3765 8.45422H24.3814ZM22.9678 11.2938C23.3874 11.2931 23.8556 11.2938 24.3814 11.2938C28.5886 11.2938 29.0871 11.3089 30.7485 11.3844C32.2848 11.4546 33.1187 11.7113 33.6741 11.927C34.4095 12.2125 34.9337 12.554 35.4848 13.1056C36.0363 13.6571 36.3776 14.1823 36.6639 14.9177C36.8796 15.4723 37.1366 16.3061 37.2066 17.8424C37.2821 19.5035 37.2985 20.0024 37.2985 24.2075C37.2985 28.4127 37.2821 28.9117 37.2066 30.5726C37.1363 32.1089 36.8796 32.9428 36.6639 33.4976C36.3784 34.2329 36.0363 34.7565 35.4848 35.3077C34.9334 35.8592 34.4098 36.2005 33.6741 36.4862C33.1193 36.7028 32.2848 36.9589 30.7485 37.0291C29.0874 37.1046 28.5886 37.121 24.3814 37.121C20.174 37.121 19.6753 37.1046 18.0144 37.0291C16.4781 36.9582 15.6442 36.7016 15.0883 36.4858C14.3531 36.2002 13.8278 35.8589 13.2763 35.3074C12.7248 34.7559 12.3835 34.232 12.0972 33.4963C11.8815 32.9415 11.6245 32.1077 11.5546 30.5714C11.4791 28.9103 11.464 28.4114 11.464 24.2036C11.464 19.9959 11.4791 19.4996 11.5546 17.8385C11.6248 16.3022 11.8815 15.4684 12.0972 14.9129C12.3829 14.1776 12.7248 13.6524 13.2765 13.1009C13.8279 12.5494 14.3531 12.208 15.0885 11.9218C15.6439 11.7052 16.4781 11.4491 18.0144 11.3785C19.4679 11.3128 20.0312 11.2931 22.9678 11.2898V11.2938ZM32.7923 13.91C31.7484 13.91 30.9015 14.7561 30.9015 15.8002C30.9015 16.8441 31.7484 17.691 32.7923 17.691C33.8362 17.691 34.6831 16.8441 34.6831 15.8002C34.6831 14.7563 33.8362 13.9094 32.7923 13.9094V13.91ZM24.3814 16.1193C19.9127 16.1193 16.2896 19.7424 16.2896 24.2112C16.2896 28.6799 19.9127 32.3013 24.3814 32.3013C28.8501 32.3013 32.472 28.6799 32.472 24.2112C32.472 19.7425 28.8498 16.1193 24.381 16.1193H24.3814ZM24.3814 18.9588C27.282 18.9588 29.6337 21.3102 29.6337 24.2112C29.6337 27.1118 27.282 29.4635 24.3814 29.4635C21.4805 29.4635 19.1292 27.1118 19.1292 24.2112C19.1292 21.3102 21.4805 18.9588 24.3814 18.9588Z" fill="white"/>
</g>
</g>
<defs>
<filter id="filter0_d_31_442" x="0.210815" y="0.0422363" width="48.3374" height="48.3374" filterUnits="userSpaceOnUse" color-interpolation-filters="sRGB">
<feFlood flood-opacity="0" result="BackgroundImageFix"/>
<feColorMatrix in="SourceAlpha" type="matrix" values="0 0 0 0 0 0 0 0 0 0 0 0 0 0 0 0 0 0 127 0" result="hardAlpha"/>
<feOffset/>
<feGaussianBlur stdDeviation="2"/>
<feComposite in2="hardAlpha" operator="out"/>
<feColorMatrix type="matrix" values="0 0 0 0 0 0 0 0 0 0 0 0 0 0 0 0 0 0 0.25 0"/>
<feBlend mode="normal" in2="BackgroundImageFix" result="effect1_dropShadow_31_442"/>
<feBlend mode="normal" in="SourceGraphic" in2="effect1_dropShadow_31_442" result="shape"/>
</filter>
<radialGradient id="paint0_radial_31_442" cx="0" cy="0" r="1" gradientUnits="userSpaceOnUse" gradientTransform="translate(14.9253 47.4867) rotate(-90) scale(39.9773 37.1821)">
<stop stop-color="#FFDD55"/>
<stop offset="0.1" stop-color="#FFDD55"/>
<stop offset="0.5" stop-color="#FF543E"/>
<stop offset="1" stop-color="#C837AB"/>
</radialGradient>
<radialGradient id="paint1_radial_31_442" cx="0" cy="0" r="1" gradientUnits="userSpaceOnUse" gradientTransform="translate(-2.54597 6.94831) rotate(78.681) scale(17.8701 73.661)">
<stop stop-color="#3771C8"/>
<stop offset="0.128" stop-color="#3771C8"/>
<stop offset="1" stop-color="#6600FF" stop-opacity="0"/>
</radialGradient>
<clipPath id="clip0_31_442">
<rect x="4.21082" y="4.04224" width="40.3373" height="40.3373" rx="20.1687" fill="white"/>
</clipPath>
</defs>
</svg>
