<svg width="50" height="49" viewBox="0 0 50 49" fill="none" xmlns="http://www.w3.org/2000/svg">
<g filter="url(#filter0_d_31_450)">
<g clip-path="url(#clip0_31_450)">
<path d="M43.4245 2.44261H6.59826C5.7627 2.4341 4.95789 2.75741 4.36043 3.3416C3.76296 3.92578 3.42165 4.72311 3.41138 5.55865V42.5333C3.42351 43.3676 3.76564 44.1631 4.3629 44.7458C4.96016 45.3285 5.76391 45.6508 6.59826 45.6423H43.4245C44.2601 45.6489 45.0644 45.3245 45.6615 44.74C46.2587 44.1554 46.6002 43.3583 46.6114 42.5227V5.54803C46.5965 4.71494 46.2534 3.92141 45.6566 3.33991C45.0598 2.75841 44.2577 2.43594 43.4245 2.44261Z" fill="#0076B2"/>
<path d="M11.5229 19.3993H17.23V37.7623H11.5229V19.3993ZM14.378 10.2604C15.0326 10.2604 15.6725 10.4545 16.2167 10.8182C16.7609 11.182 17.185 11.6989 17.4354 12.3038C17.6857 12.9086 17.7511 13.574 17.6231 14.216C17.4952 14.858 17.1797 15.4475 16.7167 15.9102C16.2536 16.3728 15.6637 16.6877 15.0216 16.815C14.3795 16.9423 13.7141 16.8764 13.1096 16.6254C12.505 16.3745 11.9884 15.9499 11.6252 15.4053C11.262 14.8608 11.0685 14.2207 11.0691 13.5661C11.0699 12.6891 11.4189 11.8483 12.0394 11.2284C12.6598 10.6086 13.501 10.2604 14.378 10.2604ZM20.8099 19.3993H26.2807V21.9204H26.3563C27.1189 20.4771 28.9782 18.955 31.7546 18.955C37.5342 18.9424 38.6056 22.746 38.6056 27.6779V37.7623H32.8985V28.8282C32.8985 26.701 32.8607 23.9625 29.9331 23.9625C27.0055 23.9625 26.5076 26.2819 26.5076 28.6895V37.7623H20.8099V19.3993Z" fill="white"/>
</g>
</g>
<defs>
<filter id="filter0_d_31_450" x="0.885498" y="0.0422363" width="48.3374" height="48.3374" filterUnits="userSpaceOnUse" color-interpolation-filters="sRGB">
<feFlood flood-opacity="0" result="BackgroundImageFix"/>
<feColorMatrix in="SourceAlpha" type="matrix" values="0 0 0 0 0 0 0 0 0 0 0 0 0 0 0 0 0 0 127 0" result="hardAlpha"/>
<feOffset/>
<feGaussianBlur stdDeviation="2"/>
<feComposite in2="hardAlpha" operator="out"/>
<feColorMatrix type="matrix" values="0 0 0 0 0 0 0 0 0 0 0 0 0 0 0 0 0 0 0.25 0"/>
<feBlend mode="normal" in2="BackgroundImageFix" result="effect1_dropShadow_31_450"/>
<feBlend mode="normal" in="SourceGraphic" in2="effect1_dropShadow_31_450" result="shape"/>
</filter>
<clipPath id="clip0_31_450">
<rect x="4.8855" y="4.04224" width="40.3373" height="40.3373" rx="20.1687" fill="white"/>
</clipPath>
</defs>
</svg>
