<svg width="26" height="26" viewBox="0 0 26 26" fill="none" xmlns="http://www.w3.org/2000/svg">
<path d="M12.943 12.3895C12.2459 12.3895 11.5773 12.1126 11.0843 11.6196C10.5913 11.1266 10.3144 10.458 10.3144 9.76089C10.3144 9.06373 10.5913 8.39513 11.0843 7.90217C11.5773 7.40921 12.2459 7.13227 12.943 7.13227C13.6402 7.13227 14.3088 7.40921 14.8017 7.90217C15.2947 8.39513 15.5716 9.06373 15.5716 9.76089C15.5716 10.1061 15.5036 10.4479 15.3715 10.7668C15.2394 11.0857 15.0458 11.3755 14.8017 11.6196C14.5576 11.8637 14.2679 12.0573 13.9489 12.1894C13.63 12.3215 13.2882 12.3895 12.943 12.3895ZM12.943 2.40076C10.991 2.40076 9.11891 3.1762 7.73862 4.55649C6.35833 5.93678 5.58289 7.80886 5.58289 9.76089C5.58289 15.281 12.943 23.4297 12.943 23.4297C12.943 23.4297 20.3031 15.281 20.3031 9.76089C20.3031 7.80886 19.5277 5.93678 18.1474 4.55649C16.7671 3.1762 14.895 2.40076 12.943 2.40076Z" fill="white"/>
</svg>
