<svg width="49" height="49" viewBox="0 0 49 49" fill="none" xmlns="http://www.w3.org/2000/svg">
<g filter="url(#filter0_d_31_458)">
<g clip-path="url(#clip0_31_458)">
<rect x="4.56006" y="4.04236" width="40.3373" height="40.3373" rx="20.1687" fill="white"/>
<path d="M4.55957 24.2115C4.55957 32.4702 9.52579 39.5652 16.6323 42.6846C16.5755 41.2762 16.6222 39.5855 16.9833 38.0532C17.3711 36.4159 19.5785 27.0631 19.5785 27.0631C19.5785 27.0631 18.9342 25.7753 18.9342 23.8721C18.9342 20.8832 20.6665 18.6509 22.8239 18.6509C24.6584 18.6509 25.5448 20.0288 25.5448 21.6789C25.5448 23.5231 24.3685 26.2816 23.7636 28.8366C23.2583 30.976 24.8363 32.7211 26.947 32.7211C30.7683 32.7211 33.342 27.813 33.342 21.9978C33.342 17.5774 30.3648 14.2688 24.9496 14.2688C18.8316 14.2688 15.0202 18.8313 15.0202 23.9277C15.0202 25.6849 15.5383 26.924 16.3497 27.8836C16.7229 28.3243 16.7747 28.5016 16.6397 29.0077C16.5429 29.3787 16.3207 30.2722 16.2287 30.6262C16.0945 31.137 15.6805 31.3197 15.2189 31.1311C12.4009 29.9807 11.0885 26.8947 11.0885 23.4257C11.0885 17.6964 15.9205 10.8264 25.5032 10.8264C33.2035 10.8264 38.2717 16.3986 38.2717 22.3801C38.2717 30.292 33.873 36.2028 27.3891 36.2028C25.2117 36.2028 23.1634 35.0258 22.4618 33.6889C22.4618 33.6889 21.2909 38.3358 21.0429 39.2332C20.6153 40.7882 19.7783 42.3425 19.0129 43.5539C20.8687 44.1026 22.7938 44.3811 24.729 44.3809C35.8666 44.3809 44.8971 35.3509 44.8971 24.2115C44.8971 13.0725 35.8666 4.04248 24.729 4.04248C13.5904 4.04248 4.55957 13.0725 4.55957 24.2115Z" fill="#CB1F27"/>
</g>
</g>
<defs>
<filter id="filter0_d_31_458" x="0.560059" y="0.0423584" width="48.3374" height="48.3374" filterUnits="userSpaceOnUse" color-interpolation-filters="sRGB">
<feFlood flood-opacity="0" result="BackgroundImageFix"/>
<feColorMatrix in="SourceAlpha" type="matrix" values="0 0 0 0 0 0 0 0 0 0 0 0 0 0 0 0 0 0 127 0" result="hardAlpha"/>
<feOffset/>
<feGaussianBlur stdDeviation="2"/>
<feComposite in2="hardAlpha" operator="out"/>
<feColorMatrix type="matrix" values="0 0 0 0 0 0 0 0 0 0 0 0 0 0 0 0 0 0 0.25 0"/>
<feBlend mode="normal" in2="BackgroundImageFix" result="effect1_dropShadow_31_458"/>
<feBlend mode="normal" in="SourceGraphic" in2="effect1_dropShadow_31_458" result="shape"/>
</filter>
<clipPath id="clip0_31_458">
<rect x="4.56006" y="4.04236" width="40.3373" height="40.3373" rx="20.1687" fill="white"/>
</clipPath>
</defs>
</svg>
