<svg width="49" height="49" viewBox="0 0 49 49" fill="none" xmlns="http://www.w3.org/2000/svg">
<g filter="url(#filter0_d_31_453)">
<g clip-path="url(#clip0_31_453)">
<path d="M35.1062 4.04224H13.677C8.45563 4.04224 4.2229 8.27497 4.2229 13.4963V34.9255C4.2229 40.1469 8.45563 44.3796 13.677 44.3796H35.1062C40.3275 44.3796 44.5602 40.1469 44.5602 34.9255V13.4963C44.5602 8.27497 40.3275 4.04224 35.1062 4.04224Z" fill="white"/>
<path d="M35.1062 4.04224H13.677C8.45563 4.04224 4.2229 8.27497 4.2229 13.4963V34.9255C4.2229 40.1469 8.45563 44.3796 13.677 44.3796H35.1062C40.3275 44.3796 44.5602 40.1469 44.5602 34.9255V13.4963C44.5602 8.27497 40.3275 4.04224 35.1062 4.04224Z" fill="#1D9BF0"/>
<path d="M35.6692 18.4458C35.6866 18.6958 35.6866 18.9459 35.6866 19.1983C35.6866 26.8871 29.8332 35.7547 19.1301 35.7547V35.75C15.9682 35.7546 12.8719 34.849 10.2107 33.1415C10.6705 33.1968 11.1325 33.2243 11.5957 33.2255C14.2164 33.2275 16.7617 32.3486 18.8226 30.7297C17.6083 30.7068 16.4316 30.305 15.4569 29.5805C14.4822 28.856 13.7583 27.845 13.3863 26.6889C14.2581 26.857 15.1568 26.8227 16.0133 26.5887C13.2987 26.0402 11.3457 23.6551 11.3457 20.8851V20.8113C12.1549 21.2621 13.0606 21.5118 13.9865 21.5396C11.4298 19.8308 10.6416 16.4294 12.1855 13.7699C13.6463 15.5676 15.469 17.0379 17.5352 18.0852C19.6013 19.1326 21.8646 19.7336 24.1781 19.8492C23.9475 18.8563 23.9815 17.8202 24.2769 16.8446C24.5723 15.8689 25.1187 14.988 25.8614 14.2897C28.2051 12.0866 31.8911 12.1996 34.0942 14.542C35.3973 14.2847 36.6469 13.807 37.7893 13.1294C37.3549 14.4767 36.4459 15.6204 35.2314 16.3476C36.3849 16.2117 37.5113 15.9029 38.5729 15.4316C37.792 16.6011 36.8087 17.6217 35.6692 18.4458Z" fill="white"/>
</g>
</g>
<defs>
<filter id="filter0_d_31_453" x="0.2229" y="0.0422363" width="48.3374" height="48.3374" filterUnits="userSpaceOnUse" color-interpolation-filters="sRGB">
<feFlood flood-opacity="0" result="BackgroundImageFix"/>
<feColorMatrix in="SourceAlpha" type="matrix" values="0 0 0 0 0 0 0 0 0 0 0 0 0 0 0 0 0 0 127 0" result="hardAlpha"/>
<feOffset/>
<feGaussianBlur stdDeviation="2"/>
<feComposite in2="hardAlpha" operator="out"/>
<feColorMatrix type="matrix" values="0 0 0 0 0 0 0 0 0 0 0 0 0 0 0 0 0 0 0.25 0"/>
<feBlend mode="normal" in2="BackgroundImageFix" result="effect1_dropShadow_31_453"/>
<feBlend mode="normal" in="SourceGraphic" in2="effect1_dropShadow_31_453" result="shape"/>
</filter>
<clipPath id="clip0_31_453">
<rect x="4.2229" y="4.04224" width="40.3373" height="40.3373" rx="20.1687" fill="white"/>
</clipPath>
</defs>
</svg>
