<svg width="548" height="79" viewBox="0 0 548 79" fill="none" xmlns="http://www.w3.org/2000/svg">
<path d="M131.552 7.77625H138.76L141.163 8.74858L142.765 10.045L144.367 13.2862L148.372 23.3336L151.042 30.4641L153.177 35.6499L154.245 38.5669V39.2151H154.779L155.58 36.2981L161.721 21.389L164.658 13.9344L167.327 7.77625H170.531L174.803 8.74858L176.672 10.045L177.74 11.9897V65.4682L176.405 65.7923L172.934 65.1441L170.798 64.1718L169.196 62.8753L168.395 61.2548V28.8435L157.716 54.7725L156.648 55.0966L153.978 54.4484L150.775 52.5037L148.906 49.9108L144.634 38.891L140.896 29.4918V65.4682L140.629 65.7923L137.158 65.4682L133.688 64.1718L132.353 63.1994L131.552 61.5789V7.77625Z" fill="white"/>
<path d="M232.465 22.6869L233.8 23.011L235.669 23.6592L238.872 23.9833L244.212 23.011L245.547 22.6869H251.954L256.226 23.9833L258.896 25.6039L262.1 23.6592L266.104 22.6869H273.313L276.517 23.6592L279.187 25.2798L281.589 27.8727L283.191 31.4379L283.725 33.7067V65.4697L280.254 65.1456L276.784 63.8491L274.915 61.9045L274.648 60.9321L274.381 35.3273L273.58 33.3826L272.512 32.0861L270.376 31.1138H268.24L265.304 32.0861L263.702 33.3826L262.901 34.679L262.634 65.1456L262.367 65.4697L258.896 65.1456L256.226 64.1733L254.09 62.5527L253.556 61.2562L253.289 35.9755L252.488 33.3826L251.154 32.0861L249.552 31.4379H244.746L241.275 32.0861V65.4697H239.139L235.402 64.4974L233.266 62.8768L232.465 61.5804V22.6869Z" fill="white"/>
<path d="M108.855 23.9833H112.059L116.064 24.9556L119.268 26.5762L121.938 28.845L124.073 31.4379L125.942 35.3272L126.743 38.2442V43.43L125.675 46.0229L124.073 46.9952L106.987 47.3194L106.72 47.9676L107.521 50.2364L108.855 52.181L111.525 53.8016L112.326 54.1257H115.797L118.467 53.1534L121.404 51.2087H123.539L124.874 52.8293L125.408 54.4498V56.7186L124.34 59.3115L122.472 61.5803L119.268 63.8491L115.53 65.4696L112.593 66.1179H106.453L102.181 64.8214L98.1762 62.2285L96.5743 60.608V59.9597H96.0404L93.6375 56.0704L92.0357 51.2087L91.7687 49.9123V41.1612L93.1036 36.2995L94.9725 32.7343L96.3074 31.1137L97.6423 29.4932L99.7781 27.5485L102.982 25.6038L106.72 24.3074L108.855 23.9833ZM109.122 32.0861L107.521 33.3825L106.186 35.9754V37.596L107.521 38.8924H112.059L113.394 37.9201L113.661 37.596L113.394 34.679L112.059 32.7343L110.991 32.0861H109.122Z" fill="white"/>
<path d="M201.234 22.6869H209.51L214.316 23.9833L216.986 25.6039L219.656 28.5209L220.99 31.762L221.524 34.679V53.8017L220.723 57.3669L219.122 60.608L216.452 63.2009L213.248 64.8215L208.976 65.7938H201.768L197.496 64.8215L193.758 62.8768L191.089 59.9598L189.487 56.0704L189.22 54.4499V34.0308L190.021 30.7897L191.623 27.8727L193.758 25.6039L196.428 23.9833L201.234 22.6869ZM203.637 30.7897L200.433 31.762L198.564 34.3549L198.297 35.3273V52.8293L199.098 55.0981L200.7 56.7187L202.302 57.3669L204.171 57.691H206.573L209.777 56.7187L211.379 55.4222L212.447 52.8293V35.6514L211.379 33.0585L210.044 31.762L206.84 30.7897H203.637Z" fill="white"/>
<path d="M305.621 22.6869H313.096L317.368 23.9833L320.305 26.2521L322.173 28.845L323.241 31.762L323.508 33.0585V38.8925L322.44 42.7818L320.838 45.3747L318.436 47.3194L315.766 48.6159L313.096 49.2641H306.955L303.485 48.2918L304.019 52.5052L304.82 54.4499L306.155 55.7463L308.29 56.7187H313.363L316.567 55.7463L319.237 54.1258L320.838 51.857L321.372 49.2641H322.173L323.775 53.1534L324.042 54.1258V57.691L322.707 60.9321L320.571 63.2009L317.635 64.8215L313.63 65.7938H307.222L303.218 64.8215L299.48 62.8768L296.81 59.9598L295.208 57.0428L294.674 54.774V33.3826L295.742 29.8174L297.344 27.2245L298.946 25.6039L302.15 23.6592L305.621 22.6869ZM308.023 30.7897L305.621 31.762L304.286 33.3826L303.485 36.6237V39.8648L305.354 40.5131H310.96L313.096 39.5407L314.431 37.5961V34.3549L313.363 32.4103L312.295 31.4379L310.426 30.7897H308.023Z" fill="white"/>
<path d="M449.793 22.6869L451.395 23.011L453.264 23.6592L456.735 23.9833L461.807 23.011L463.142 22.6869H469.55L473.822 23.9833L476.758 25.928L478.894 28.845L479.962 32.0861L480.229 34.3549V65.4697L476.491 65.1456L473.822 64.1733L471.686 62.5527L471.152 61.2562L470.885 35.6514L470.084 33.3826L468.749 32.0861L467.147 31.4379H462.341L458.871 32.0861V65.4697H456.735L452.997 64.4974L450.861 62.8768L449.793 60.9321V22.6869Z" fill="white"/>
<path d="M334.188 22.6869L335.522 23.011L339.527 23.9833L343.265 23.6592L347.537 22.6869H353.944L358.216 23.9833L360.886 25.928L362.754 28.1968L363.822 30.7897L364.356 32.7344V65.4697L360.886 65.1456L357.415 63.8491L355.546 61.9045L355.279 60.608L355.012 35.0032L354.211 33.0585L353.143 32.0861L351.274 31.4379H346.736L343.532 32.0861L343.265 65.4697H341.129L337.391 64.4974L335.255 63.2009L334.188 61.2562V22.6869Z" fill="white"/>
<path d="M375.837 15.8804H378.239L381.176 16.5286L383.045 17.825L384.647 20.0938L384.914 21.3903V25.2796H398.263L398.53 26.5761L397.729 30.4654L396.127 33.0583L393.991 34.0307H384.914L385.181 52.1809L386.249 55.0979L387.584 56.3944L389.72 57.0426H392.389L395.059 56.0703L396.661 54.7738L397.729 53.1533L398.263 51.2086L398.53 48.9398L399.598 49.588L401.2 52.5051L401.734 54.4497V58.3391L400.399 61.5802L398.53 63.5249L395.326 65.1454L392.656 65.7937H386.783L382.511 64.4972L379.841 62.5525L377.706 59.9596L376.638 57.3667L375.837 52.8292V15.8804Z" fill="white"/>
<path d="M429.503 23.0101H431.906L435.643 23.9825L437.245 25.2789L438.313 26.5754L438.58 27.8718V65.1447L438.313 65.4688L434.575 65.1447L431.372 63.8483L429.77 62.2277L429.503 61.5795V23.0101Z" fill="white"/>
<path d="M84.8302 57.6892H90.4368L92.3056 60.2821L94.9754 63.1991L96.0434 64.1715V66.4402L89.3688 66.1161L64.8066 64.1715L47.4528 62.875L40.2443 62.2268L34.6377 61.9027L34.3707 60.9303L35.4387 60.6062L64.2726 58.9857L84.8302 57.6892Z" fill="white"/>
<path d="M90.4338 25.9286H94.1716L93.9046 27.225L92.0357 29.4938L89.0989 34.3555H85.6282L68.0074 33.0591L42.6442 31.1144L34.6348 30.4662L34.1008 30.142V29.4938L35.7027 29.1697L61.5999 27.5491L80.0216 26.5768L90.4338 25.9286Z" fill="white"/>
<path d="M84.0274 42.1333H86.4303V46.6709L86.6972 49.5879L73.0812 48.2914L54.9265 46.3468L50.6548 45.6985V44.7262L75.217 42.7815L84.0274 42.1333Z" fill="white"/>
<path d="M409.477 54.1244H415.885L417.487 55.4208L417.754 56.0691V64.8201H411.079L409.477 63.5236V54.1244Z" fill="white"/>
<path d="M429.503 8.42505H436.444L437.779 9.39739L438.313 10.0456V18.1484H431.639L430.037 17.1761L429.503 15.8796V8.42505Z" fill="white"/>
</svg>
